<svg xmlns="http://www.w3.org/2000/svg" viewBox="0 0 24 24">
  <path fill="#FFFFFF" fill-rule="evenodd" d="M19.035 16.2l-4.85-4.12 4.85-4.22v8.34zm-1.02.84H5.984c-.268 0-.512-.115-.693-.283l4.97-4.266L12 14.01l1.738-1.523 4.967 4.27c-.18.168-.423.283-.69.283zM5.034 7.864l4.85 4.216-4.85 4.12V7.865zm.95-.824h12.03c.27 0 .512.074.693.243L12 13.018 5.294 7.292c.18-.17.424-.252.692-.252zM11.996 0C5.375 0 0 5.375 0 11.996 0 18.626 5.375 24 11.995 24 18.625 24 24 18.625 24 11.996 24 5.368 18.625 0 11.995 0z"/>
</svg>
