<svg viewBox="0 0 28 30" xmlns="http://www.w3.org/2000/svg"><path d="M27.05 23.786c-3.58-2.999-7.42-4.984-8.21-5.357-.104-.053-.159-.162-.159-.215v-2.411c.367-.751.578-1.554.685-2.249.053.053.159.053.211.053.315 0 .737-.43 1.212-2.09.474-1.713.21-2.305-.211-2.411 1.316-6.481-1.738-6.696-1.738-6.696s-.474-.909-1.683-1.554c-.633-.483-1.582-.856-2.793-.856h-.578c-.474 0-.948.106-1.368.268-.526.215-1.053.483-1.527.804-.578.374-1.104.804-1.527 1.286-.737.751-1.368 1.769-1.683 2.999-.263 1.071-.263 2.196.159 3.32h-.105c-.526 0-1.053.43-.474 2.464.422 1.607.842 2.036 1.157 2.089.159.91.422 1.929.948 2.841v2.09c0 .106-.052.215-.159.215-.789.374-4.632 2.357-8.209 5.357-.631.536-1.001 1.339-1.001 2.196v4.071h27.995v-4.018c.052-.856-.315-1.66-.945-2.196z" fill="#000"/></svg>