<svg xmlns="http://www.w3.org/2000/svg" viewBox="0 0 20 16">
  <path fill="#000" fill-rule="evenodd" d="M20 1.893c-.736.32-1.526.54-2.356.636.848-.5 1.496-1.293 1.804-2.235-.795.463-1.673.8-2.607.98C16.093.49 15.028 0 13.847 0 11.58 0 9.743 1.81 9.743 4.04c0 .316.036.625.106.92C6.44 4.792 3.416 3.183 1.392.738 1.04 1.334.84 2.028.84 2.768c0 1.403.723 2.64 1.823 3.364-.672-.022-1.305-.204-1.858-.507v.05c0 1.958 1.415 3.59 3.29 3.963-.343.09-.706.14-1.08.14-.266 0-.522-.025-.773-.074.522 1.606 2.037 2.774 3.832 2.806C4.67 13.594 2.9 14.237.98 14.237c-.333 0-.66-.02-.98-.055C1.816 15.33 3.972 16 6.29 16 13.835 16 17.96 9.843 17.96 4.504l-.014-.523c.806-.566 1.503-1.277 2.052-2.087z"/>
</svg>
