<svg xmlns="http://www.w3.org/2000/svg" viewBox="0 0 19 20">
  <path fill="#000" fill-rule="evenodd" d="M12.367 0h-4.66C5.628 0 4.19.466 2.896 1.56c-1.017.898-1.624 2.204-1.624 3.493 0 1.986 1.48 4.096 4.22 4.096.264 0 .556-.028.813-.053l-.037.095c-.112.27-.216.525-.216.922 0 .775.365 1.253.718 1.714l.045.06-.08.004c-1.13.08-3.24.228-4.778 1.196C.14 14.194 0 15.803 0 16.27 0 18.126 1.69 20 5.468 20c4.392 0 6.69-2.48 6.69-4.93 0-1.81-1.038-2.705-2.14-3.655l-.93-.74c-.286-.243-.644-.546-.644-1.108 0-.55.358-.916.673-1.237l.033-.034c1.004-.81 2.14-1.727 2.14-3.71 0-1.996-1.217-3.027-1.802-3.522h1.546c.02 0 .038-.006.054-.016L12.42.19c.038-.024.056-.07.043-.115-.01-.045-.05-.075-.096-.075zM6.715 18.907c-2.677 0-4.476-1.28-4.476-3.184 0-1.244.735-2.148 2.184-2.685 1.16-.4 2.658-.42 2.673-.42.253 0 .38 0 .584.027 1.874 1.364 2.774 2.08 2.774 3.445 0 1.738-1.433 2.817-3.74 2.817zM6.69 8.417c-2.247 0-3.18-3.02-3.18-4.64 0-.822.183-1.454.56-1.93.408-.524 1.107-.862 1.78-.862 2.063 0 3.204 2.838 3.204 4.8 0 .31 0 1.25-.635 1.904-.428.435-1.123.728-1.73.728zm12.21.924h-2.457V6.838c0-.057-.045-.104-.1-.104h-1.057c-.056 0-.1.047-.1.104V9.34H12.74c-.054 0-.1.047-.1.104v1.096c0 .057.046.103.1.103h2.445v2.52c0 .058.045.104.1.104h1.057c.056 0 .1-.046.1-.103v-2.52H18.9c.055 0 .1-.047.1-.104V9.444c0-.057-.045-.103-.1-.103z"/>
</svg>
