<svg xmlns="http://www.w3.org/2000/svg" viewBox="0 0 24 24">
  <path fill="#FFFFFF" fill-rule="evenodd" d="M12 0C5.372 0 0 5.372 0 12c0 6.627 5.372 12 12 12s12-5.373 12-12c0-6.628-5.372-12-12-12zm6.46 18.43c-.164.71-.746 1.236-1.447 1.315-1.66.185-3.34.186-5.014.185-1.674 0-3.354 0-5.014-.185-.7-.08-1.284-.604-1.447-1.316-.234-1.014-.234-2.122-.234-3.166s.002-2.15.236-3.164c.164-.712.745-1.238 1.446-1.316 1.66-.185 3.34-.186 5.014-.185 1.673-.002 3.353 0 5.014.184.7.078 1.283.604 1.447 1.316.233 1.014.23 2.12.23 3.164s0 2.152-.233 3.165zm-4.545-4.915c-.298 0-.576.163-.836.484V12.04h-.81v5.993h.81v-.433c.27.335.547.495.835.495.322 0 .538-.17.646-.502.055-.19.083-.487.083-.9v-1.778c0-.423-.028-.718-.082-.898-.107-.335-.323-.505-.645-.505zm-3.155 3.467c-.18.254-.35.38-.512.38-.108 0-.17-.065-.19-.19-.007-.027-.007-.126-.007-.315V13.57h-.808v3.53c0 .315.027.528.072.664.08.226.26.332.52.332.3 0 .604-.18.926-.548v.487h.81V13.57h-.81v3.412zm3.074-.224c0 .404-.12.603-.352.603-.133 0-.268-.063-.404-.2v-2.72c.136-.134.27-.197.404-.197.233 0 .352.207.352.61v1.905zm-7.53-3.872h.952v5.15h.9v-5.15h.968v-.844h-2.82v.844zM8.06 4.07l.644 2.378.618-2.378h.917L9.147 7.673v2.452h-.906V7.673c-.082-.435-.264-1.07-.555-1.916-.19-.562-.39-1.126-.58-1.687h.953zm2.186 3.014c0-.482.082-.835.256-1.063.226-.308.545-.462.952-.462.41 0 .728.154.954.463.172.23.254.582.254 1.064v1.58c0 .48-.082.836-.254 1.06-.226.31-.544.463-.954.463-.407 0-.726-.154-.952-.462-.174-.225-.256-.58-.256-1.06v-1.58zm3.09-1.472h.814v3.323c0 .192 0 .29.01.318.018.127.082.19.192.19.163 0 .335-.125.516-.38v-3.45h.818v4.512h-.818v-.492c-.325.373-.636.554-.934.554-.263 0-.445-.107-.527-.335-.045-.137-.072-.352-.072-.67V5.61zm3.156 7.903c-.414 0-.736.152-.97.458-.17.226-.25.575-.25 1.052v1.564c0 .474.088.825.26 1.05.234.304.557.456.98.456.422 0 .754-.16.978-.484.098-.143.162-.306.19-.485.007-.08.016-.26.016-.52v-.12h-.825c0 .325-.01.505-.016.55-.047.215-.163.323-.362.323-.278 0-.414-.206-.414-.62v-.79h1.618v-.926c0-.477-.08-.826-.25-1.052-.226-.305-.548-.457-.954-.457zm.396 1.76h-.81v-.412c0-.413.136-.62.406-.62.268 0 .404.207.404.62v.413zm-5.434-5.83c.264 0 .39-.21.39-.627V6.92c0-.418-.126-.626-.39-.626-.263 0-.39.208-.39.626v1.898c0 .417.127.626.39.626z"/>
</svg>
