<svg xmlns="http://www.w3.org/2000/svg" viewBox="0 0 20 19">
  <path fill="#000" fill-rule="evenodd" d="M20 9.017c0-1.386-1.123-2.513-2.502-2.513-.77 0-1.478.346-1.95.938-1.325-.605-2.836-.978-4.434-1.096l1.373-4.357 3.067.666c.234.917 1.065 1.598 2.05 1.598 1.17 0 2.12-.954 2.12-2.127 0-1.173-.95-2.127-2.12-2.127-.843 0-1.572.498-1.912 1.217l-3.54-.77c-.36-.08-.72.13-.832.485L9.626 6.31c-1.87.045-3.646.434-5.173 1.132-.473-.592-1.18-.938-1.95-.938C1.122 6.504 0 7.63 0 9.017c0 .673.263 1.304.73 1.774-.278.6-.42 1.226-.42 1.862 0 1.727 1.03 3.338 2.9 4.537C5.027 18.356 7.44 19 10 19c2.56 0 4.972-.643 6.79-1.81 1.87-1.2 2.9-2.81 2.9-4.538 0-.636-.142-1.26-.42-1.86.467-.47.73-1.102.73-1.775zm-18.9.86c-.16-.257-.242-.55-.242-.86 0-.91.738-1.65 1.644-1.65.39 0 .755.13 1.048.376-1.046.596-1.87 1.313-2.45 2.135zm3.764 1.456c0-.99.802-1.795 1.788-1.795.985 0 1.787.805 1.787 1.795 0 .99-.803 1.795-1.788 1.795-.986 0-1.788-.806-1.788-1.795zm8.803 4.096c-.697.762-2.102 1.237-3.667 1.237s-2.97-.475-3.666-1.238c-.13-.143-.196-.326-.188-.518.01-.19.09-.368.232-.498.132-.12.303-.188.483-.188.2 0 .393.085.528.233.415.453 1.49.77 2.612.77 1.123 0 2.197-.317 2.612-.77.135-.15.327-.234.527-.234.18 0 .35.067.482.188.14.13.223.307.232.498.008.192-.058.375-.187.517zm-.32-2.302c-.984 0-1.786-.806-1.786-1.795 0-.99.803-1.795 1.788-1.795.986 0 1.788.805 1.788 1.795 0 .99-.802 1.795-1.788 1.795zm5.554-3.25c-.58-.822-1.404-1.54-2.45-2.135.293-.245.66-.377 1.048-.377.906 0 1.644.74 1.644 1.65 0 .31-.083.604-.24.862z"/>
</svg>
