<svg xmlns="http://www.w3.org/2000/svg" viewBox="0 0 100 100">
  <style>
    .st0{fill:#FEC940;}
  </style>
  <path d="M48 37.4v36c1.3.3 2.6.4 4 .4V37.2h-.8c-1.1-.1-2.1 0-3.2.2zm2-19.6c4 0 6.7-1.3 7.3-2.2-.6-.9-3.3-2.2-7.3-2.2s-6.7 1.3-7.3 2.2c.6.9 3.3 2.2 7.3 2.2zM32.5 47c-1.2 2.3-1.8 5-1.8 8.2 0 2.7.6 5.3 1.9 7.5 1.3 2.3 2.9 4.2 5 5.9 1.7 1.4 3.7 2.4 5.8 3.3V38.3c-2.4.7-4.4 1.8-6.2 3.1-1.9 1.5-3.5 3.4-4.7 5.6z" class="st0"/>
  <path d="M50 0C22.4 0 0 22.4 0 50s22.4 50 50 50 50-22.4 50-50S77.6 0 50 0zm0 9.7c1 0 10 .2 10 5.9s-9 5.9-10 5.9-10-.2-10-5.9 9-5.9 10-5.9zM75.7 73c-.4-.4-.8-.6-1.4-.6-.3 0-.9.4-1.9 1.2-.9.8-2.3 1.7-4 2.6-1.7 1-4 1.8-6.6 2.6-1.5.4-3.2.7-5.1.9v9H52v-8.8c-1.4 0-2.7-.1-4-.2v9h-4.7v-9.8c-1-.2-2.1-.5-3-.9-3.5-1.2-6.6-3-9.1-5.3s-4.5-5-5.9-8.2c-1.4-3.1-2.1-6.6-2.1-10.3 0-3.1.7-6.1 2-8.9 1.3-2.8 3.2-5.3 5.7-7.5s5.5-3.9 9-5.2c1.1-.4 2.3-.7 3.5-1V24c1.6.7 3.4 1.1 4.7 1.2v5.7c1.2-.1 2.4-.2 3.6-.2h.4v-5.5c1.4-.1 3.2-.5 4.7-1.2v7.1c1.1.1 2.1.3 3 .5 2.4.5 4.5 1.1 6.2 1.7 1.8.6 3.2 1.2 4.3 1.7 1.1.5 1.9.8 2.3.8.5 0 .8-.1.9-.2.1-.2.3-.3.5-.6l1.1.7-5.7 9.8-1.1-.5c.3-.3.5-.7.5-1.2s-.5-1.1-1.4-1.9c-.9-.8-2.2-1.5-3.8-2.2-1.6-.7-3.5-1.3-5.6-1.8-.4-.1-.9-.1-1.3-.2v35.8c.8-.2 1.6-.3 2.4-.6 2-.6 3.7-1.4 5.3-2.3 1.5-.9 2.7-1.8 3.7-2.8.9-.9 1.4-1.7 1.4-2.3 0-.5-.2-1-.5-1.3l1.2-.7 6.8 8.8-1.3.7z" class="st0"/>
</svg>
