<svg xmlns="http://www.w3.org/2000/svg" viewBox="0 0 209 44">
  <g fill="none" fill-rule="evenodd">
    <path fill="#FEC940" d="M118.75 3.85c-1.91 0-3.172-.635-3.47-1.058.298-.427 1.56-1.06 3.47-1.06 1.913 0 3.173.635 3.473 1.06-.3.423-1.56 1.058-3.472 1.058m0-3.85c-.48 0-4.76.08-4.76 2.792 0 2.712 4.28 2.79 4.77 2.79.49 0 4.77-.078 4.77-2.79C123.52.08 119.24 0 118.75 0M14.623 34.89V13.896c.615-.073 1.23-.13 1.84-.13.17 0 .326.024.494.028v21.35c-.79-.024-1.567-.108-2.334-.256zm-6.176-2.76c-1.22-.958-2.197-2.103-2.933-3.434-.735-1.33-1.103-2.793-1.103-4.392 0-1.845.36-3.433 1.08-4.763.72-1.33 1.64-2.42 2.77-3.27 1.05-.79 2.25-1.38 3.59-1.79v19.56c-1.24-.5-2.39-1.11-3.4-1.9zM26.9 29.508c.18.18.27.428.27.748 0 .356-.27.81-.81 1.362-.536.552-1.255 1.093-2.15 1.627-.897.533-1.93.987-3.095 1.36-.447.144-.914.235-1.38.324V14.09c.25.045.518.072.763.13 1.254.304 2.348.66 3.28 1.07.933.407 1.67.834 2.207 1.28.538.444.807.81.807 1.092 0 .285-.09.517-.27.695l.7.32 3.335-5.71-.645-.427c-.107.143-.197.258-.27.347-.07.09-.25.133-.536.133-.252 0-.71-.15-1.372-.453-.665-.302-1.516-.632-2.557-.988-1.04-.36-2.26-.69-3.657-.99-.556-.12-1.167-.2-1.785-.27V5.71h-2.778v4.44c-.08-.003-.147-.01-.226-.01-.72 0-1.42.035-2.1.093v-4.52h-2.78v4.956c-.72.16-1.42.35-2.08.59-2.06.74-3.82 1.75-5.27 3.01-1.45 1.26-2.56 2.71-3.33 4.35C.39 20.26 0 21.98 0 23.8c0 2.17.412 4.17 1.238 6.003.824 1.832 1.98 3.415 3.47 4.75 1.487 1.332 3.273 2.357 5.352 3.068.577.2 1.175.36 1.786.51v5.69h2.777v-5.25c.755.08 1.525.13 2.324.13h.01v5.13h2.778v-5.27c1.09-.1 2.088-.27 2.968-.51 1.578-.43 2.88-.93 3.9-1.49 1.022-.56 1.81-1.07 2.367-1.54.557-.46.923-.7 1.103-.7.324 0 .593.13.808.38l.7-.48-3.98-5.12-.7.43zM54 26.77c-.466 1.103-1.13 2.062-1.99 2.88-.86.818-1.91 1.468-3.147 1.948-1.24.48-2.627.722-4.17.722-1.542 0-2.933-.24-4.17-.722-1.236-.48-2.285-1.13-3.148-1.947-.86-.81-1.525-1.77-1.99-2.88-.466-1.1-.7-2.29-.7-3.57 0-1.24.234-2.42.7-3.52.465-1.1 1.13-2.06 1.99-2.88.863-.82 1.912-1.46 3.148-1.92 1.237-.46 2.628-.69 4.17-.69 1.543 0 2.93.23 4.17.7 1.236.46 2.286 1.1 3.147 1.92.86.82 1.524 1.78 1.99 2.88.465 1.11.7 2.28.7 3.53 0 1.28-.235 2.476-.7 3.578m.59-12.032c-1.182-1.08-2.608-1.95-4.276-2.59-1.667-.64-3.54-.96-5.622-.96-2.08 0-3.954.32-5.62.96-1.667.64-3.095 1.51-4.278 2.59-1.184 1.09-2.09 2.36-2.717 3.82-.627 1.46-.942 3.026-.942 4.7 0 1.67.315 3.235.942 4.694.627 1.46 1.533 2.73 2.717 3.815 1.183 1.082 2.61 1.92 4.277 2.505 1.67.59 3.55.88 5.63.88s3.96-.29 5.62-.88c1.67-.585 3.1-1.42 4.28-2.505 1.19-1.085 2.09-2.356 2.72-3.816.63-1.46.94-3.02.94-4.69 0-1.677-.31-3.24-.94-4.7-.62-1.46-1.53-2.73-2.71-3.818m7.67-2.587c.58 0 .94.1 1.11.293.16.2.24.595.24 1.2v19.21c0 .604-.08 1.004-.24 1.2-.16.2-.53.293-1.1.293V35h6.02v-.64c-.57 0-.94-.097-1.1-.293-.16-.194-.24-.594-.24-1.2V13.64c0-.604.08-1.002.24-1.2.16-.195.53-.293 1.1-.293v-.64h-6.03v.64zm29.92 0c.58 0 .96.1 1.16.293.2.2.3.595.3 1.2v16.49l-14.58-16.6c-.39-.5-.59-.8-.59-.908 0-.14.1-.26.3-.35.198-.084.58-.13 1.158-.13v-.64h-7.86v.64c.576 0 .96.1 1.158.29.2.2.298.6.298 1.2v19.21c0 .608-.093 1.008-.29 1.2-.197.2-.58.297-1.157.297V35H78v-.64c-.574 0-.96-.097-1.16-.293-.193-.196-.293-.596-.293-1.2V15.67l15.22 17.235c.178.214.33.383.458.507.127.126.19.276.19.454s-.073.302-.216.374c-.15.07-.58.106-1.29.106v.64h7.2v-.64c-.58 0-.96-.097-1.16-.293-.2-.196-.3-.596-.3-1.2V13.64c0-.604.1-1.002.29-1.2.2-.195.584-.293 1.16-.293v-.64h-5.92v.64z"/>
    <path fill="#F7F7F7" d="M115.936 8.393c.502 0 .842.116 1.02.347.18.23.27.542.27.934v24.228c0 .39-.09.702-.27.932-.178.233-.518.348-1.02.348v.64h5.63v-.64c-.504 0-.844-.115-1.023-.348-.18-.23-.27-.543-.27-.932V9.674c0-.392.09-.703.27-.934.18-.23.52-.347 1.023-.347v-.64h-5.63v.64zm31.514 17.895c-.34 1.05-.88 1.975-1.613 2.775-.736.8-1.686 1.432-2.85 1.894-1.167.464-2.593.695-4.28.695h-7.692V14.15h7.693c1.686 0 3.112.23 4.278.692 1.165.463 2.115 1.094 2.85 1.895.735.8 1.274 1.726 1.615 2.774.34 1.05.52 2.19.52 3.39 0 1.21-.17 2.34-.51 3.39m1.18-11.74c-.98-1.05-2.25-1.87-3.79-2.48-1.54-.6-3.37-.91-5.48-.91h-13.02v.64c.58 0 .94.1 1.1.3.16.2.24.6.24 1.2v19.21c0 .61-.08 1.01-.24 1.2-.16.2-.53.3-1.1.3v.64h13.02c2.12 0 3.95-.3 5.49-.9 1.54-.6 2.81-1.43 3.8-2.48.99-1.04 1.71-2.29 2.18-3.73.468-1.44.7-2.98.7-4.61 0-1.67-.232-3.213-.7-4.64-.47-1.42-1.19-2.66-2.18-3.703M177 26.447c-.465 1.1-1.13 2.06-1.99 2.88-.86.817-1.91 1.467-3.146 1.947-1.24.48-2.63.72-4.17.72-1.546 0-2.935-.24-4.17-.72-1.24-.48-2.29-1.13-3.15-1.95-.86-.82-1.525-1.78-1.99-2.88-.47-1.104-.7-2.3-.7-3.58 0-1.243.23-2.415.7-3.52.465-1.1 1.13-2.062 1.99-2.88.86-.82 1.91-1.455 3.15-1.92 1.234-.46 2.623-.69 4.166-.69 1.54 0 2.93.23 4.17.69 1.236.46 2.286 1.1 3.145 1.92.86.82 1.524 1.78 1.99 2.88.466 1.105.7 2.277.7 3.523 0 1.28-.234 2.47-.7 3.574m.59-12.03c-1.18-1.084-2.607-1.95-4.275-2.59-1.67-.64-3.544-.96-5.624-.96s-3.954.32-5.622.96c-1.668.64-3.094 1.506-4.28 2.59-1.182 1.08-2.09 2.357-2.716 3.81-.626 1.46-.94 3.027-.94 4.7 0 1.67.314 3.238.94 4.697.628 1.46 1.535 2.73 2.718 3.81 1.188 1.09 2.61 1.92 4.28 2.51 1.667.59 3.54.88 5.62.88s3.955-.29 5.624-.88c1.665-.582 3.09-1.42 4.273-2.502 1.186-1.085 2.09-2.356 2.718-3.816.63-1.46.94-3.027.94-4.698 0-1.67-.31-3.233-.94-4.69-.62-1.46-1.53-2.73-2.71-3.82m30.01 15.66c0 .608-.09 1.026-.27 1.256-.18.23-.54.35-1.075.35h-16.9V13.3c0-.604.08-1.003.24-1.2.16-.195.53-.293 1.1-.293v-.64h-6.02v.64c.572 0 .94.098 1.104.293.16.197.24.596.24 1.2v19.21c0 .603-.08 1.003-.24 1.2-.165.194-.533.292-1.105.292v.64h21.574c.54 0 .896.07 1.075.212.18.142.27.408.27.8h.645V30.05h-.647z"/>
  </g>
</svg>
