<svg xmlns="http://www.w3.org/2000/svg" viewBox="0 0 20 20">
  <path fill="#000" fill-rule="evenodd" d="M10.85 6.093h5.463c.17 0 .31-.14.31-.31V.31c0-.17-.14-.31-.31-.31H10.85c-.172 0-.31.14-.31.31v5.472c0 .172.138.31.31.31zm8.808-1.508h-1.84c-.188 0-.34.153-.34.343v1.19c0 .458-.373.83-.83.83h-6.135c-.456 0-.828-.372-.828-.83v-1.19c0-.19-.153-.343-.342-.343H7.56c-.11 0-.216.054-.28.145-.064.092-.08.208-.042.313.388 1.08.604 2.198.644 3.322.008.242.01.512.01.827 0 .09.035.18.1.243.063.065.15.102.242.102h.608v10.12c0 .19.153.343.342.343h3.79c.188 0 .34-.153.34-.343V12.93h.533v6.727c0 .19.153.343.342.343h2.99c.188 0 .34-.153.34-.343V9.537h2.138c.19 0 .342-.154.342-.343V4.928c0-.19-.153-.343-.342-.343zM6.646 4.98c-.335-.872-.797-1.86-1.684-2.583-.726-.592-1.482-.645-2.248-.157-.674.43-1.185 1.062-1.654 2.053C.242 6.017-.088 7.9.02 10.223c.008.182.16.325.342.325H3.08v7.347c-.916.112-1.632.48-1.684.874-.004.03-.004.06 0 .09.06.437.997.904 2.296.904 1.302 0 2.238-.47 2.297-.908.003-.03.003-.06-.002-.092-.053-.393-.772-.76-1.69-.87v-7.346h2.705c.186 0 .34-.15.342-.336l.004-.25c.008-.52.018-1.057 0-1.578-.04-1.155-.278-2.3-.704-3.405z"/>
</svg>
