<svg xmlns="http://www.w3.org/2000/svg" viewBox="0 0 24 24">
  <path fill="#FFFFFF" fill-rule="evenodd" d="M17.97 9.306l.01.382c0 3.906-2.972 8.406-8.407 8.406-1.668 0-3.22-.488-4.53-1.327.233.027.468.042.707.042 1.384 0 2.658-.474 3.668-1.266-1.292-.024-2.383-.878-2.76-2.052.182.035.365.052.557.052.27 0 .53-.035.78-.102-1.353-.274-2.37-1.466-2.37-2.897v-.037c.397.222.852.354 1.337.37-.792-.53-1.314-1.434-1.314-2.458 0-.542.145-1.05.398-1.486 1.457 1.788 3.635 2.964 6.09 3.088-.05-.216-.076-.443-.076-.674 0-1.63 1.323-2.954 2.955-2.954.85 0 1.617.36 2.157.934.672-.134 1.305-.38 1.876-.718-.22.69-.688 1.27-1.298 1.636.595-.07 1.166-.232 1.696-.466-.396.592-.898 1.112-1.476 1.526M12 0C5.373 0 0 5.373 0 12s5.373 12 12 12 12-5.373 12-12c0-6.628-5.373-12-12-12"/>
</svg>
