<svg xmlns="http://www.w3.org/2000/svg" viewBox="0 0 24 24">
  <path fill="#FFFFFF" fill-rule="evenodd" d="M18.675 11.723c0 .155-.126.28-.28.28h-2.028v2.03c0 .154-.127.28-.28.28h-.577c-.156 0-.282-.126-.282-.28v-2.03h-2.026c-.154 0-.28-.124-.28-.28v-.577c0-.154.126-.28.28-.28h2.026V8.837c0-.155.126-.28.282-.28h.577c.153 0 .28.125.28.28v2.027h2.027c.154 0 .28.126.28.28v.578zm-8.058 6.12c-.454.13-.944.198-1.46.198-.573 0-1.123-.065-1.637-.195-.994-.25-1.73-.727-2.072-1.34-.148-.264-.223-.547-.223-.84 0-.3.072-.606.214-.908.544-1.16 1.98-1.942 3.57-1.942h.046c-.13-.228-.192-.464-.192-.712 0-.123.017-.25.05-.377-1.67-.038-2.917-1.26-2.917-2.87 0-1.138.91-2.246 2.21-2.694.388-.134.785-.203 1.175-.203h3.568c.122 0 .23.078.267.193.038.115-.004.242-.102.313l-.798.578c-.048.034-.105.052-.165.052h-.285c.37.442.585 1.073.585 1.78 0 .783-.396 1.522-1.116 2.085-.556.434-.577.554-.577.8.006.136.393.58.82.882.995.703 1.366 1.394 1.366 2.546 0 1.204-.915 2.245-2.33 2.656zm-1.086-7.04h.002c.29 0 .536-.113.726-.33.298-.34.43-.897.35-1.488-.137-1.057-.892-1.936-1.68-1.96h-.032c-.28 0-.527.115-.717.33-.294.337-.418.867-.34 1.457.137 1.056.908 1.968 1.68 1.992h.01zM12 0C5.383 0 0 5.383 0 12c0 6.616 5.383 12 12 12 6.616 0 12-5.384 12-12 0-6.617-5.383-12-12-12zm-1.608 13.99c-.078-.053-.157-.11-.24-.166-.244-.074-.502-.113-.766-.116h-.032c-1.216 0-2.28.735-2.28 1.574 0 .914.912 1.628 2.077 1.628 1.538 0 2.316-.53 2.316-1.575 0-.1-.01-.2-.036-.304-.104-.404-.476-.657-1.038-1.04z"/>
</svg>
