<svg xmlns="http://www.w3.org/2000/svg" viewBox="0 0 24 24">
  <path fill="#FFFFFF" fill-rule="evenodd" d="M16.375 19.482c0-6.55-5.317-11.866-11.85-11.866V4.798c8.087 0 14.67 6.59 14.67 14.684h-2.82zm-4.995 0c0-1.847-.71-3.576-2.006-4.864-1.296-1.303-3.024-2.013-4.856-2.013v-2.82c5.347 0 9.69 4.35 9.69 9.697H11.38zm-4.906-.015c-1.084 0-1.956-.872-1.956-1.95 0-1.075.872-1.954 1.956-1.954 1.076 0 1.955.88 1.955 1.955 0 1.077-.873 1.95-1.956 1.95zM11.994 0C5.375 0 0 5.375 0 11.995 0 18.625 5.375 24 11.995 24 18.625 24 24 18.625 24 11.995 24 5.368 18.624 0 11.995 0z"/>
</svg>
